<?xml version="1.0" encoding="UTF-8"?> <svg xmlns="http://www.w3.org/2000/svg" viewBox="0 0 300 200"><defs><style>.cls-1{fill:#fff;}.cls-2{fill:#ff0;}.cls-3{fill:#ccc;}.cls-4{fill:#fc0;}.cls-5{font-size:12px;font-family:ArialMT, Arial;}.cls-6,.cls-7{fill:none;stroke-miterlimit:10;}.cls-6{stroke:#000;stroke-width:2px;}.cls-7{stroke:red;stroke-width:3px;}.cls-8{fill:#5c7786;}</style></defs><g id="box"><rect class="cls-1" width="300" height="200"></rect></g><g id="Base"><rect class="cls-2" x="109" y="11" width="180" height="163"></rect></g><g id="Layer_3_copy" data-name="Layer 3 copy"><rect class="cls-3" x="197" y="82" width="4" height="180" transform="translate(371 -27) rotate(90)"></rect><rect class="cls-4" x="122" y="127" width="63" height="45"></rect><rect class="cls-4" x="207" y="109" width="62" height="65"></rect><rect x="151.5" y="140.5" width="4" height="63" transform="translate(325.5 18.5) rotate(90)"></rect><rect x="236" y="141" width="4" height="62" transform="translate(410 -66) rotate(90)"></rect><text class="cls-5" transform="translate(7.68 23.72)">From the top, <tspan x="0" y="14.4">there is clearly a </tspan><tspan x="0" y="28.8">gap in the shadow.    They are not intersecting.</tspan></text><line class="cls-6" x1="52" y1="69" x2="52" y2="109.88"></line><polygon points="52 124 43.87 104.1 52 108.82 60.13 104.1 52 124"></polygon><circle class="cls-7" cx="196.5" cy="168.5" r="23"></circle></g><g id="Shapes"><rect class="cls-8" x="122" y="64" width="63" height="63"></rect><polygon class="cls-8" points="238 55.29 206.58 109.71 269.42 109.71 238 55.29"></polygon></g></svg> 